<svg id="Fish" xmlns="http://www.w3.org/2000/svg" xmlns:xlink="http://www.w3.org/1999/xlink" viewBox="-380 -155 959.52 513.84">
<defs><style>.cls-1,.cls-2,.cls-4,.cls-7{fill:none;}.cls-1{clip-rule:evenodd;}.cls-2,.cls-3{fill-rule:evenodd;}.cls-3,.cls-5{fill:#fff;}.cls-4,.cls-7{stroke:#ea502f;stroke-miterlimit:10;}.cls-4{stroke-width:5px;}.cls-6{clip-path:url(#clip-path);}.cls-7{stroke-width:4px;}</style>
<clipPath id="clip-path" transform="translate(-406.76 -346.22)"><polyline class="cls-1" points="0 0 1023.96 0 1023.96 768 0 768"/></clipPath>
</defs>
<path class="cls-3" d="M499.34,609.72A370.57,370.57,0,0,0,613.23,491.91a178.87,178.87,0,0,0-29.71-118.33,87.81,87.81,0,0,0-109.4-10.45,14.35,14.35,0,0,0-13.75,9.26l0,15.49-3.29,20a156,156,0,0,0,31.83,65,220.08,220.08,0,0,0-42,65.66,101.36,101.36,0,0,0,.1,69Z" transform="translate(-406.76 -346.22)"/><path class="cls-4" d="M499.34,609.72A370.57,370.57,0,0,0,613.23,491.91a178.87,178.87,0,0,0-29.71-118.33,87.81,87.81,0,0,0-109.4-10.45,14.35,14.35,0,0,0-13.75,9.26l0,15.49-3.29,20a156,156,0,0,0,31.83,65,220.08,220.08,0,0,0-42,65.66,101.36,101.36,0,0,0,.1,69Z" transform="translate(-406.76 -346.22)"/><path class="cls-3" d="M604.92,458.76a79.06,79.06,0,0,0,62,5q-10,6.19-19.69,12.79-5.73,3.89-11.36,7.9l-19.55-5.56a70.77,70.77,0,0,0,5,9.29,72.35,72.35,0,0,0,23.49,23.05l-33.65-17.86-3.73,6.75" transform="translate(-406.76 -346.22)"/><path class="cls-4" d="M604.92,458.76a79.06,79.06,0,0,0,62,5q-10,6.19-19.69,12.79-5.73,3.89-11.36,7.9l-19.55-5.56a70.77,70.77,0,0,0,5,9.29,72.35,72.35,0,0,0,23.49,23.05l-33.65-17.86-3.73,6.75" transform="translate(-406.76 -346.22)"/><path class="cls-3" d="M474.12,455a86.19,86.19,0,0,1-66.24,4.76q12.15,6.06,23.82,13,6,3.58,11.92,7.39L461.17,477a79.88,79.88,0,0,1-3.49,7.51,80.76,80.76,0,0,1-13.62,18.7l23.8-13.51,3.74,6.76" transform="translate(-406.76 -346.22)"/><ellipse class="cls-4" cx="115" cy="48.28" rx="14.52" ry="14.46"/><path class="cls-4" d="M474.12,455a86.19,86.19,0,0,1-66.24,4.76q12.15,6.06,23.82,13,6,3.58,11.92,7.39L461.17,477a79.88,79.88,0,0,1-3.49,7.51,80.76,80.76,0,0,1-13.62,18.7l23.8-13.51,3.74,6.76" transform="translate(-406.76 -346.22)"/><path class="cls-4" d="M473.76,362a99.33,99.33,0,0,1,15.75,16,100.81,100.81,0,0,1,12,19.52" transform="translate(-406.76 -346.22)"/><path class="cls-4" d="M461.52,369.24A77.12,77.12,0,0,1,479,386.65,106.93,106.93,0,0,1,491.52,410" transform="translate(-406.76 -346.22)"/><path class="cls-4" d="M461.52,386.76a17.49,17.49,0,0,1,12,9.67,44.41,44.41,0,0,1,1.84,5.15c1.56,4.8,3.66,9.42,7.1,13a21.8,21.8,0,0,0,9.82,5.89" transform="translate(-406.76 -346.22)"/><path class="cls-4" d="M531.45,409.32A25.08,25.08,0,0,1,525,440.23a24.68,24.68,0,0,1-29.2,1.5" transform="translate(-406.76 -346.22)"/><path class="cls-4" d="M541.41,419.4a24.85,24.85,0,0,1-35.61,32.3" transform="translate(-406.76 -346.22)"/><path class="cls-4" d="M552.36,446.16a29.54,29.54,0,0,1-13.79,20,30,30,0,0,1-30.49.34" transform="translate(-406.76 -346.22)"/><ellipse class="cls-5" cx="115" cy="48.28" rx="14.52" ry="14.46"/><circle class="cls-4" cx="111.94" cy="47.32" r="7.5"/><g class="cls-6"><path class="cls-7" d="M587.8,475.41a5.3,5.3,0,0,1-.56,6.41,5.21,5.21,0,0,1-5.31,1.47,6.52,6.52,0,0,1-1.43,7.29,6.38,6.38,0,0,1-5.17,1.76,6.43,6.43,0,0,1-1.76,6.89,6.25,6.25,0,0,1-4.58,1.58,4,4,0,0,1-1.24,5.85,3.7,3.7,0,0,1-3.39.19,4.42,4.42,0,0,1-2.6,6.25,3.94,3.94,0,0,1-2.56-.08,4.45,4.45,0,0,1-2.07,5.89,4.15,4.15,0,0,1-3.26.17,5.48,5.48,0,0,1-2.21,7.58,5.05,5.05,0,0,1-3.52.44,5.07,5.07,0,0,1-2,5.84,4.94,4.94,0,0,1-4.86.35,6.87,6.87,0,0,1-2.25,6.41,6.75,6.75,0,0,1-5.33,1.6,5.16,5.16,0,0,1-6.69,5.93,5.41,5.41,0,0,1-2.34,7.34,5,5,0,0,1-4,.23,4.74,4.74,0,0,1-3,6.7,4.25,4.25,0,0,1-3.2-.4,6,6,0,0,1-3.57,5.15,5.8,5.8,0,0,1-4.16.16" transform="translate(-406.76 -346.22)"/></g><g class="cls-6"><path class="cls-7" d="M590.8,493.68a5.3,5.3,0,0,1-.56,6.41,5.21,5.21,0,0,1-5.31,1.47,6.52,6.52,0,0,1-1.43,7.29,6.38,6.38,0,0,1-5.17,1.76,6.43,6.43,0,0,1-1.76,6.89,6.25,6.25,0,0,1-4.58,1.58,4,4,0,0,1-1.24,5.85,3.7,3.7,0,0,1-3.39.19,4.42,4.42,0,0,1-2.6,6.25,3.94,3.94,0,0,1-2.56-.08,4.45,4.45,0,0,1-2.07,5.89,4.15,4.15,0,0,1-3.26.17,5.48,5.48,0,0,1-2.21,7.58,5.05,5.05,0,0,1-3.52.44,5.07,5.07,0,0,1-2,5.84,4.94,4.94,0,0,1-4.86.35,6.87,6.87,0,0,1-2.25,6.41,6.75,6.75,0,0,1-5.33,1.6A5.16,5.16,0,0,1,530,565.5a5.41,5.41,0,0,1-2.34,7.34,5,5,0,0,1-4,.23,4.74,4.74,0,0,1-3,6.7,4.25,4.25,0,0,1-3.2-.4,5.94,5.94,0,0,1-3.57,5.14,5.75,5.75,0,0,1-4.16.17" transform="translate(-406.76 -346.22)"/></g><g class="cls-6"><path class="cls-7" d="M586.93,456.93a5.3,5.3,0,0,1-.55,6.42,5.19,5.19,0,0,1-5.31,1.46,6.55,6.55,0,0,1-1.43,7.29,6.34,6.34,0,0,1-5.17,1.76,6.41,6.41,0,0,1-1.77,6.89,6.19,6.19,0,0,1-4.57,1.59,4,4,0,0,1-1.25,5.85,3.69,3.69,0,0,1-3.39.19,4.4,4.4,0,0,1-2.59,6.24,4,4,0,0,1-2.57-.07,4.44,4.44,0,0,1-2.07,5.89,4.08,4.08,0,0,1-3.25.16,5.49,5.49,0,0,1-2.21,7.59,5.08,5.08,0,0,1-3.53.43,5,5,0,0,1-2,5.84,4.94,4.94,0,0,1-4.86.36,6.86,6.86,0,0,1-2.25,6.4,6.72,6.72,0,0,1-5.33,1.61,5.15,5.15,0,0,1-6.69,5.92,5.44,5.44,0,0,1-2.34,7.35,5.08,5.08,0,0,1-4,.23,4.75,4.75,0,0,1-3,6.7,4.25,4.25,0,0,1-3.2-.41,5.92,5.92,0,0,1-3.56,5.15,5.8,5.8,0,0,1-4.16.17" transform="translate(-406.76 -346.22)"/></g>
</svg>