<svg xmlns="http://www.w3.org/2000/svg" xmlns:xlink="http://www.w3.org/1999/xlink" viewBox="0 0 959.52 513.84"><defs><style>.cls-1,.cls-2,.cls-5,.cls-7,.cls-8{fill:none;}.cls-1{clip-rule:evenodd;}.cls-2,.cls-4{fill-rule:evenodd;}.cls-3{fill:#ea502f;}.cls-4,.cls-9{fill:#fff;}.cls-5,.cls-7{stroke:#ea502f;}.cls-5,.cls-7,.cls-8{stroke-miterlimit:10;}.cls-5{stroke-width:5px;}.cls-6{clip-path:url(#clip-path);}.cls-7{stroke-width:84px;}.cls-8{stroke:#fff;stroke-width:4px;}</style><clipPath id="clip-path" transform="translate(-32.16 -216.12)"><polyline class="cls-1" points="0 0 1023.96 0 1023.96 768 0 768"/></clipPath></defs><g id="Layer_1" data-name="Layer 1"><rect class="cls-3" y="269.4" width="959.52" height="244.44"/><path class="cls-4" d="M984,454.69a27.75,27.75,0,0,0-19.4,1.87c-6.22,3.05-11.17,8.44-17.78,10.78a23.47,23.47,0,0,1-30.6-16.52,28.24,28.24,0,0,1-37.38,26.6,25.66,25.66,0,0,1-17.31-22.61A30.71,30.71,0,0,1,815,462a28.27,28.27,0,0,1-9.16-26.59l-20,27.5a26.29,26.29,0,0,0,5.64-25,25.7,25.7,0,0,0-10.18-14,47.06,47.06,0,0,1-18.93,38.24,29.88,29.88,0,0,0,1.67-24.73,29.41,29.41,0,0,0-10.88-13.84,82.47,82.47,0,0,1-11.11,40.7,42.39,42.39,0,0,0-9.19-42,41.89,41.89,0,0,0-35.45-13.12,60.31,60.31,0,0,1-16.78,102.21" transform="translate(-32.16 -216.12)"/><path class="cls-5" d="M984,454.69a27.75,27.75,0,0,0-19.4,1.87c-6.22,3.05-11.17,8.44-17.78,10.78a23.47,23.47,0,0,1-30.6-16.52,28.24,28.24,0,0,1-37.38,26.6,25.66,25.66,0,0,1-17.31-22.61A30.71,30.71,0,0,1,815,462a28.27,28.27,0,0,1-9.16-26.59l-20,27.5a26.29,26.29,0,0,0,5.64-25,25.7,25.7,0,0,0-10.18-14,47.06,47.06,0,0,1-18.93,38.24,29.88,29.88,0,0,0,1.67-24.73,29.41,29.41,0,0,0-10.88-13.84,82.47,82.47,0,0,1-11.11,40.7,42.39,42.39,0,0,0-9.19-42,41.89,41.89,0,0,0-35.45-13.12,60.31,60.31,0,0,1-16.78,102.21" transform="translate(-32.16 -216.12)"/><path class="cls-4" d="M414.72,460.18a18.43,18.43,0,0,0-7.8-12.43,18.13,18.13,0,0,0-10.1-3.2,18.49,18.49,0,0,1-10,29.9,16.79,16.79,0,0,1-19.32-9.88,19,19,0,0,1-37.29-2.09,18.46,18.46,0,0,1-19.59,21.42A18,18,0,0,1,294.22,463a27.72,27.72,0,0,1-15.35,22.51c-4.59-5.82-6.45-13-7.9-20.27-2.49-12.41,3.7-23.25,12.47-31.15A45.19,45.19,0,0,0,259,453.94a44.59,44.59,0,0,0-6,18.71l-7-22L234.25,480a42.47,42.47,0,0,0-20.53-54.66,39.63,39.63,0,0,0-31.91-1.27A64.36,64.36,0,0,1,117.6,533" transform="translate(-32.16 -216.12)"/><path class="cls-5" d="M414.72,460.18a18.43,18.43,0,0,0-7.8-12.43,18.13,18.13,0,0,0-10.1-3.2,18.49,18.49,0,0,1-10,29.9,16.79,16.79,0,0,1-19.32-9.88,19,19,0,0,1-37.29-2.09,18.46,18.46,0,0,1-19.59,21.42A18,18,0,0,1,294.22,463a27.72,27.72,0,0,1-15.35,22.51c-4.59-5.82-6.45-13-7.9-20.27-2.49-12.41,3.7-23.25,12.47-31.15A45.19,45.19,0,0,0,259,453.94a44.59,44.59,0,0,0-6,18.71l-7-22L234.25,480a42.47,42.47,0,0,0-20.53-54.66,39.63,39.63,0,0,0-31.91-1.27A64.36,64.36,0,0,1,117.6,533" transform="translate(-32.16 -216.12)"/><path class="cls-4" d="M718.92,454.35A37.8,37.8,0,0,1,666.09,431a34.81,34.81,0,0,1-52.77,20.51" transform="translate(-32.16 -216.12)"/><path class="cls-5" d="M718.92,454.35A37.8,37.8,0,0,1,666.09,431a34.81,34.81,0,0,1-52.77,20.51" transform="translate(-32.16 -216.12)"/><path class="cls-4" d="M43.44,489.36A76.72,76.72,0,0,0,80.53,462.5,13.3,13.3,0,0,0,90,475.42a14.92,14.92,0,0,0,18.86-17.49,15.19,15.19,0,0,0,9.07,21,16.67,16.67,0,0,0,20.6-21.87A43.95,43.95,0,0,0,202.92,480" transform="translate(-32.16 -216.12)"/><path class="cls-5" d="M43.44,489.36A76.72,76.72,0,0,0,80.53,462.5,13.3,13.3,0,0,0,90,475.42a14.92,14.92,0,0,0,18.86-17.49,15.19,15.19,0,0,0,9.07,21,16.67,16.67,0,0,0,20.6-21.87A43.95,43.95,0,0,0,202.92,480" transform="translate(-32.16 -216.12)"/><path class="cls-4" d="M664.92,553.21a27.75,27.75,0,0,1,19.4,1.87c6.22,3,11.17,8.44,17.78,10.78a23.47,23.47,0,0,0,30.6-16.52,28.24,28.24,0,0,0,37.38,26.6,25.66,25.66,0,0,0,17.31-22.61,30.71,30.71,0,0,0,46.51,7.23A28.27,28.27,0,0,0,843.06,534l20,27.5a26.29,26.29,0,0,1-5.64-25,25.7,25.7,0,0,1,10.18-14,47.06,47.06,0,0,0,18.93,38.24A29.88,29.88,0,0,1,884.87,536a29.41,29.41,0,0,1,10.88-13.84,82.47,82.47,0,0,0,11.11,40.7,42.39,42.39,0,0,1,9.19-42,41.89,41.89,0,0,1,35.45-13.12A60.31,60.31,0,0,0,968.28,610" transform="translate(-32.16 -216.12)"/><path class="cls-5" d="M664.92,553.21a27.75,27.75,0,0,1,19.4,1.87c6.22,3,11.17,8.44,17.78,10.78a23.47,23.47,0,0,0,30.6-16.52,28.24,28.24,0,0,0,37.38,26.6,25.66,25.66,0,0,0,17.31-22.61,30.71,30.71,0,0,0,46.51,7.23A28.27,28.27,0,0,0,843.06,534l20,27.5a26.29,26.29,0,0,1-5.64-25,25.7,25.7,0,0,1,10.18-14,47.06,47.06,0,0,0,18.93,38.24A29.88,29.88,0,0,1,884.87,536a29.41,29.41,0,0,1,10.88-13.84,82.47,82.47,0,0,0,11.11,40.7,42.39,42.39,0,0,1,9.19-42,41.89,41.89,0,0,1,35.45-13.12A60.31,60.31,0,0,0,968.28,610" transform="translate(-32.16 -216.12)"/><path class="cls-4" d="M351.36,580.45a27.74,27.74,0,0,0-19.4,1.87c-6.23,3-11.19,8.44-17.79,10.78a23.49,23.49,0,0,1-30.62-16.52,28.25,28.25,0,0,1-37.4,26.6,25.68,25.68,0,0,1-17.31-22.61,30.73,30.73,0,0,1-46.53,7.23,28.27,28.27,0,0,1-9.16-26.59l-20,27.5a26.3,26.3,0,0,0,5.65-25,25.76,25.76,0,0,0-10.19-14A47,47,0,0,1,129.65,588a29.85,29.85,0,0,0,1.67-24.73,29.37,29.37,0,0,0-10.89-13.84,81.32,81.32,0,0,1-2.83,20.82,82.92,82.92,0,0,1-8.28,19.88,42.36,42.36,0,0,0-9.19-42A41.91,41.91,0,0,0,64.67,535a60,60,0,0,1,21.1,52.28A60.55,60.55,0,0,1,47.88,637.2" transform="translate(-32.16 -216.12)"/><path class="cls-5" d="M351.36,580.45a27.74,27.74,0,0,0-19.4,1.87c-6.23,3-11.19,8.44-17.79,10.78a23.49,23.49,0,0,1-30.62-16.52,28.25,28.25,0,0,1-37.4,26.6,25.68,25.68,0,0,1-17.31-22.61,30.73,30.73,0,0,1-46.53,7.23,28.27,28.27,0,0,1-9.16-26.59l-20,27.5a26.3,26.3,0,0,0,5.65-25,25.76,25.76,0,0,0-10.19-14A47,47,0,0,1,129.65,588a29.85,29.85,0,0,0,1.67-24.73,29.37,29.37,0,0,0-10.89-13.84,81.32,81.32,0,0,1-2.83,20.82,82.92,82.92,0,0,1-8.28,19.88,42.36,42.36,0,0,0-9.19-42A41.91,41.91,0,0,0,64.67,535a60,60,0,0,1,21.1,52.28A60.55,60.55,0,0,1,47.88,637.2" transform="translate(-32.16 -216.12)"/><path class="cls-4" d="M43.44,521.4a76.72,76.72,0,0,0,37.09-26.86A13.3,13.3,0,0,0,90,507.46,14.92,14.92,0,0,0,108.85,490a15.19,15.19,0,0,0,9.07,21,16.67,16.67,0,0,0,20.6-21.87A43.95,43.95,0,0,0,202.92,512" transform="translate(-32.16 -216.12)"/><path class="cls-5" d="M43.44,521.4a76.72,76.72,0,0,0,37.09-26.86A13.3,13.3,0,0,0,90,507.46,14.92,14.92,0,0,0,108.85,490a15.19,15.19,0,0,0,9.07,21,16.67,16.67,0,0,0,20.6-21.87A43.95,43.95,0,0,0,202.92,512" transform="translate(-32.16 -216.12)"/><path class="cls-4" d="M241.32,558.12a76.72,76.72,0,0,0,37.09-26.86,13.3,13.3,0,0,0,9.46,12.92,14.92,14.92,0,0,0,18.86-17.49,15.19,15.19,0,0,0,9.07,21,16.67,16.67,0,0,0,20.6-21.87,43.95,43.95,0,0,0,64.4,22.92" transform="translate(-32.16 -216.12)"/><path class="cls-5" d="M241.32,558.12a76.72,76.72,0,0,0,37.09-26.86,13.3,13.3,0,0,0,9.46,12.92,14.92,14.92,0,0,0,18.86-17.49,15.19,15.19,0,0,0,9.07,21,16.67,16.67,0,0,0,20.6-21.87,43.95,43.95,0,0,0,64.4,22.92" transform="translate(-32.16 -216.12)"/><g class="cls-6"><path class="cls-4" d="M801.49,655.24a76.68,76.68,0,0,0,42.18-17.79,13.29,13.29,0,0,0,6.32,14.7,14.92,14.92,0,0,0,22.31-12.77,15.15,15.15,0,0,0,4.12,22.49,16.66,16.66,0,0,0,25-16.64A44,44,0,0,0,959,682" transform="translate(-32.16 -216.12)"/></g><g class="cls-6"><path class="cls-5" d="M801.49,655.24a76.68,76.68,0,0,0,42.18-17.79,13.29,13.29,0,0,0,6.32,14.7,14.92,14.92,0,0,0,22.31-12.77,15.15,15.15,0,0,0,4.12,22.49,16.66,16.66,0,0,0,25-16.64A44,44,0,0,0,959,682" transform="translate(-32.16 -216.12)"/></g><path class="cls-7" d="M205.92,328a722.68,722.68,0,0,1,623.88,1.93" transform="translate(-32.16 -216.12)"/><path class="cls-8" d="M206,357.77a722.68,722.68,0,0,1,623.88,1.93" transform="translate(-32.16 -216.12)"/></g><g id="Layer_3" data-name="Layer 3"><path class="cls-9" d="M289.9,293l4.63,13.77q-6.15,2.09-12.28,4.28-6.74-18.82-13.43-37.66,8.9-3.19,17.84-6.15c4.46-1.48,8-2.09,10.62-1.89a12.5,12.5,0,0,1,6.84,2.58,12,12,0,0,1,2.55,15.95c-2,3.08-5.27,5.32-9.75,6.78C294.57,291.44,292.24,292.22,289.9,293ZM287,284.93l4.19-1.41c3.7-1.22,5.15-3.07,4.34-5.61-.76-2.38-2.87-3-6.33-1.87-1.55.51-3.11,1-4.66,1.56Z" transform="translate(-32.16 -216.12)"/><path class="cls-9" d="M322.17,286q5.5-2.64,11.06-5.19c1.81,2.85,4.71,3.74,8.74,2.71,3.14-.81,4.51-2,4.12-3.58a2.23,2.23,0,0,0-1.57-1.68,12.54,12.54,0,0,0-4.23-.24c-7.52.54-12.6.14-15.22-1.38a10.59,10.59,0,0,1-5.14-6.51,11.49,11.49,0,0,1,2-10.32c2.36-3.24,6.41-5.64,12.12-7.11,8.67-2.21,15.18-.35,19.38,5.39q-5,2.75-10,5.54c-1.73-2.33-4.31-3.07-7.69-2.2-2.81.72-4,1.9-3.59,3.5a1.94,1.94,0,0,0,1.39,1.43,12.71,12.71,0,0,0,3.95.18,74.81,74.81,0,0,1,11.27,0,11.41,11.41,0,0,1,6.14,2.65,10.68,10.68,0,0,1,3.57,6A11.81,11.81,0,0,1,355.67,286c-2.74,3.23-6.77,5.49-12.11,6.87C333.8,295.36,326.73,293.19,322.17,286Z" transform="translate(-32.16 -216.12)"/><path class="cls-9" d="M401.49,239.46q-5,12.45-9.5,25,1.45,8.34,2.92,16.68-6.06,1.06-12.09,2.25-1.62-8.33-3.22-16.63-9.17-10-18.76-19.68,7.19-1.56,14.38-3,5,5.74,9.87,11.55,2.36-7.14,4.86-14.26Q395.71,240.36,401.49,239.46Z" transform="translate(-32.16 -216.12)"/><path class="cls-9" d="M437.92,259.55q5.9-.3,11.78-.51c-.11,4.94-1.64,8.85-4.56,11.77A18.32,18.32,0,0,1,433.89,276c-5.53.65-10.21-.54-14.13-3.63s-6.35-7.74-7.25-14,.05-11.46,2.92-15.75,7.41-6.82,13.53-7.55c5.72-.67,10.28.33,13.62,2.94a17.24,17.24,0,0,1,6.22,11.12q-6,.87-12.05,1.83-.44-4-2.26-5.58a5.09,5.09,0,0,0-4.05-1.34c-4.14.49-5.72,4.62-4.76,12.33q.81,6.48,2.66,8.61a5,5,0,0,0,4.66,1.8C436.35,266.38,438,264,437.92,259.55Z" transform="translate(-32.16 -216.12)"/><path class="cls-9" d="M498.75,230.85q.36,20,.76,40-6.28.14-12.56.38-.3-7.77-.59-15.54c-3.27.12-6.54.28-9.81.45q.39,7.77.81,15.53-6.28.35-12.56.79-1.41-20-2.79-39.89,6.64-.48,13.29-.83.36,7.34.75,14.69c3.31-.18,6.63-.33,9.94-.47l-.54-14.69Q492.1,231,498.75,230.85Z" transform="translate(-32.16 -216.12)"/><path class="cls-9" d="M529.3,230.86q-.48,20-.92,40-6.28-.13-12.56-.15.07-20,.19-40Q522.66,230.72,529.3,230.86Z" transform="translate(-32.16 -216.12)"/><path class="cls-9" d="M568.36,257.56q5.82.79,11.61,1.68c-1,4.83-3.24,8.39-6.64,10.72a18.23,18.23,0,0,1-12,3c-5.53-.39-9.88-2.43-13.14-6.19s-4.77-8.78-4.49-15.11,2.17-11.25,5.77-14.92,8.5-5.34,14.62-4.91c5.72.4,10,2.23,12.77,5.42a17.22,17.22,0,0,1,4,12.08q-6.08-.27-12.14-.44.33-4-1.17-5.91a5,5,0,0,0-3.72-2.06c-4.13-.29-6.45,3.47-6.93,11.23-.27,4.35.07,7.33,1,9a5,5,0,0,0,4.22,2.63C565.55,264,567.6,261.92,568.36,257.56Z" transform="translate(-32.16 -216.12)"/><path class="cls-9" d="M644.62,268.09q-6.69-1.27-13.42-2.42-1.26,7.36-2.53,14.75-6-1-12.07-1.95,3-19.77,6.09-39.52,15.48,2.36,30.86,5.39-.94,4.66-1.87,9.34-8.89-1.76-17.84-3.29l-1.11,6.41q6.81,1.17,13.59,2.46Q645.48,263.68,644.62,268.09Z" transform="translate(-32.16 -216.12)"/><path class="cls-9" d="M680.22,250.13q-4.66,19.44-9.29,38.89-6.12-1.44-12.26-2.78,4.26-19.53,8.56-39.06Q673.74,248.59,680.22,250.13Z" transform="translate(-32.16 -216.12)"/><path class="cls-9" d="M685.6,280.72q6,.48,12,1.07c.11,3.37,2.14,5.6,6.11,6.73,3.08.88,4.85.55,5.32-1a2.26,2.26,0,0,0-.51-2.24,12.17,12.17,0,0,0-3.49-2.34c-6.7-3.3-10.83-6.2-12.3-8.84a10.66,10.66,0,0,1-1.12-8.2,11.55,11.55,0,0,1,6.87-7.92c3.64-1.62,8.3-1.66,13.92,0,8.53,2.45,13.18,7.33,13.89,14.4-3.78-.11-7.56-.18-11.33-.23-.31-2.88-2.14-4.82-5.48-5.77-2.76-.79-4.37-.37-4.82,1.23a1.91,1.91,0,0,0,.47,1.92,12.43,12.43,0,0,0,3.29,2.15,75.32,75.32,0,0,1,9.65,5.64,11.39,11.39,0,0,1,3.93,5.39,10.66,10.66,0,0,1,0,7,11.84,11.84,0,0,1-7.82,7.88c-4,1.41-8.56,1.34-13.82-.16C690.83,294.62,685.9,289.19,685.6,280.72Z" transform="translate(-32.16 -216.12)"/><path class="cls-9" d="M779.19,281.25q-7.41,18.57-14.79,37.16-5.89-2.34-11.83-4.55l5.48-14.57q-4.63-1.73-9.29-3.4l-5.27,14.64q-6-2.13-11.94-4.15,6.41-18.94,12.85-37.87,6.35,2.14,12.65,4.4-2.5,6.91-5,13.83,4.71,1.69,9.41,3.45l5.19-13.76Q772.95,278.78,779.19,281.25Z" transform="translate(-32.16 -216.12)"/></g></svg>